<svg class="h-60 w-auto" xmlns="http://www.w3.org/2000/svg" viewBox="0 0 398.34 239.49"><defs><style>.b1a3991e-67d4-4881-bc6b-8496c876b2ea{fill:#059669;}.bf5ed9d2-d4da-4275-8eb9-178373799b61{fill:#ebe9d4;}</style></defs><g id="a5b2c496-50c7-46d5-8e4c-4db1210e7ac5" data-name="Layer 2"><g id="b05f5c07-7132-41d6-8d9d-3aa393129dbf" data-name="Layer 1"><path class="b1a3991e-67d4-4881-bc6b-8496c876b2ea" d="M24.28,228.36a.46.46,0,0,1,.18.28,2.17,2.17,0,0,1,.06.59,2.3,2.3,0,0,1-.06.6.43.43,0,0,1-.18.27.67.67,0,0,1-.35.08H23.4v7.21h.53a.59.59,0,0,1,.35.08.46.46,0,0,1,.18.28,2.22,2.22,0,0,1,.06.59,2.3,2.3,0,0,1-.06.6.43.43,0,0,1-.18.27.67.67,0,0,1-.35.08H20.46a.66.66,0,0,1-.34-.08.43.43,0,0,1-.18-.27,2.3,2.3,0,0,1-.06-.6,2.22,2.22,0,0,1,.06-.59.46.46,0,0,1,.18-.28.57.57,0,0,1,.34-.08h.63v-2.78h-3.6v2.78h.62a.55.55,0,0,1,.34.08.46.46,0,0,1,.18.28,2.22,2.22,0,0,1,.06.59,2.3,2.3,0,0,1-.06.6.43.43,0,0,1-.18.27.63.63,0,0,1-.34.08H14.64a.67.67,0,0,1-.35-.08.43.43,0,0,1-.18-.27,2.3,2.3,0,0,1-.06-.6,2.22,2.22,0,0,1,.06-.59.46.46,0,0,1,.18-.28.59.59,0,0,1,.35-.08h.53v-7.21h-.53a.67.67,0,0,1-.35-.08.43.43,0,0,1-.18-.27,2.3,2.3,0,0,1-.06-.6,2.17,2.17,0,0,1,.06-.59.46.46,0,0,1,.18-.28.59.59,0,0,1,.35-.08h3.47a.55.55,0,0,1,.34.08.46.46,0,0,1,.18.28,2.17,2.17,0,0,1,.06.59,2.3,2.3,0,0,1-.06.6.43.43,0,0,1-.18.27.63.63,0,0,1-.34.08h-.62v2.44h3.6v-2.44h-.63a.66.66,0,0,1-.34-.08.43.43,0,0,1-.18-.27,2.3,2.3,0,0,1-.06-.6,2.17,2.17,0,0,1,.06-.59.46.46,0,0,1,.18-.28.57.57,0,0,1,.34-.08h3.47A.59.59,0,0,1,24.28,228.36Z"></path><path class="b1a3991e-67d4-4881-bc6b-8496c876b2ea" d="M36.57,228.42a.63.63,0,0,1,.14.46v2.8a.47.47,0,0,1-.27.45,2.05,2.05,0,0,1-.87.14,1.71,1.71,0,0,1-.78-.13.49.49,0,0,1-.22-.46v-1.41H30.86v2.35h2.27a.49.49,0,0,1,.45.21,1.63,1.63,0,0,1,.13.79,1.55,1.55,0,0,1-.13.78.49.49,0,0,1-.45.21H30.86v2.68h3.81v-1.87a.47.47,0,0,1,.27-.45,2.16,2.16,0,0,1,.89-.13,1.81,1.81,0,0,1,.84.13.46.46,0,0,1,.22.45v3.27a.62.62,0,0,1-.14.46.63.63,0,0,1-.46.14H27.64a.63.63,0,0,1-.34-.08.43.43,0,0,1-.18-.27,2.3,2.3,0,0,1-.06-.6,2.22,2.22,0,0,1,.06-.59.46.46,0,0,1,.18-.28.55.55,0,0,1,.34-.08h.9v-7.21h-.9a.63.63,0,0,1-.34-.08.43.43,0,0,1-.18-.27,2.3,2.3,0,0,1-.06-.6,2.17,2.17,0,0,1,.06-.59.46.46,0,0,1,.18-.28.55.55,0,0,1,.34-.08H36.1A.63.63,0,0,1,36.57,228.42Z"></path><path class="b1a3991e-67d4-4881-bc6b-8496c876b2ea" d="M46.59,228.36a.47.47,0,0,1,.19.28,2.17,2.17,0,0,1,.06.59,2.3,2.3,0,0,1-.06.6.44.44,0,0,1-.19.27.63.63,0,0,1-.34.08h-2v7.11h3.26V234.4a.46.46,0,0,1,.28-.45,2.37,2.37,0,0,1,.94-.13,2.88,2.88,0,0,1,.67.06.57.57,0,0,1,.33.18.55.55,0,0,1,.09.34v4.29a.67.67,0,0,1-.13.46.68.68,0,0,1-.47.14H40.56a.67.67,0,0,1-.35-.08.43.43,0,0,1-.18-.27,2.3,2.3,0,0,1-.06-.6,2.22,2.22,0,0,1,.06-.59.46.46,0,0,1,.18-.28.59.59,0,0,1,.35-.08h1.35v-7.21H40.56a.67.67,0,0,1-.35-.08.43.43,0,0,1-.18-.27,2.3,2.3,0,0,1-.06-.6,2.17,2.17,0,0,1,.06-.59.46.46,0,0,1,.18-.28.59.59,0,0,1,.35-.08h5.69A.55.55,0,0,1,46.59,228.36Z"></path><path class="b1a3991e-67d4-4881-bc6b-8496c876b2ea" d="M61.78,229.24a4,4,0,0,1,0,5.54,4.82,4.82,0,0,1-3.24,1H57.15v1.64h2a.59.59,0,0,1,.35.08.46.46,0,0,1,.18.28,2.22,2.22,0,0,1,.06.59,2.3,2.3,0,0,1-.06.6.43.43,0,0,1-.18.27.67.67,0,0,1-.35.08H53.47a.67.67,0,0,1-.35-.08.43.43,0,0,1-.18-.27,2.3,2.3,0,0,1-.06-.6,2.22,2.22,0,0,1,.06-.59.46.46,0,0,1,.18-.28.59.59,0,0,1,.35-.08h1.36v-7.21H53.47a.67.67,0,0,1-.35-.08.43.43,0,0,1-.18-.27,2.3,2.3,0,0,1-.06-.6,2.17,2.17,0,0,1,.06-.59.46.46,0,0,1,.18-.28.59.59,0,0,1,.35-.08h5.07A4.82,4.82,0,0,1,61.78,229.24Zm-4.63,4.51h1.1a2.69,2.69,0,0,0,1.67-.43,1.54,1.54,0,0,0,.56-1.31,1.56,1.56,0,0,0-.56-1.32,2.76,2.76,0,0,0-1.67-.42h-1.1Z"></path><path class="b1a3991e-67d4-4881-bc6b-8496c876b2ea" d="M74.63,228.36a.46.46,0,0,1,.18.28,2.17,2.17,0,0,1,.06.59,2.3,2.3,0,0,1-.06.6.43.43,0,0,1-.18.27.67.67,0,0,1-.35.08H72.1v7.21h2.37a.55.55,0,0,1,.34.08.46.46,0,0,1,.18.28,2.22,2.22,0,0,1,.06.59,2.3,2.3,0,0,1-.06.6.43.43,0,0,1-.18.27.63.63,0,0,1-.34.08H67.4a.63.63,0,0,1-.34-.08.43.43,0,0,1-.18-.27,2.3,2.3,0,0,1-.06-.6,2.22,2.22,0,0,1,.06-.59.46.46,0,0,1,.18-.28.55.55,0,0,1,.34-.08h2.38v-7.21H67.59a.67.67,0,0,1-.35-.08.43.43,0,0,1-.18-.27,2.3,2.3,0,0,1-.06-.6,2.17,2.17,0,0,1,.06-.59.46.46,0,0,1,.18-.28.59.59,0,0,1,.35-.08h6.69A.59.59,0,0,1,74.63,228.36Z"></path><path class="b1a3991e-67d4-4881-bc6b-8496c876b2ea" d="M89,228.36a.43.43,0,0,1,.19.28,2.17,2.17,0,0,1,.06.59,2.3,2.3,0,0,1-.06.6.41.41,0,0,1-.19.27.63.63,0,0,1-.34.08h-.53v8.7a.5.5,0,0,1-.23.46,1.52,1.52,0,0,1-.79.15,1.45,1.45,0,0,1-.63-.11,1.12,1.12,0,0,1-.37-.38L82,232.09h0v5.3h1a.55.55,0,0,1,.34.08.46.46,0,0,1,.18.28,2.22,2.22,0,0,1,.06.59,2.3,2.3,0,0,1-.06.6.43.43,0,0,1-.18.27.63.63,0,0,1-.34.08H79.2a.63.63,0,0,1-.34-.08.43.43,0,0,1-.18-.27,2.3,2.3,0,0,1-.06-.6,2.22,2.22,0,0,1,.06-.59.46.46,0,0,1,.18-.28.55.55,0,0,1,.34-.08h.62v-7.21H79.2a.63.63,0,0,1-.34-.08.43.43,0,0,1-.18-.27,2.3,2.3,0,0,1-.06-.6,2.17,2.17,0,0,1,.06-.59.46.46,0,0,1,.18-.28.55.55,0,0,1,.34-.08h2.45a.55.55,0,0,1,.52.25L86,234.9h0v-4.72H85.2a.63.63,0,0,1-.34-.08.43.43,0,0,1-.18-.27,2.3,2.3,0,0,1-.06-.6,2.17,2.17,0,0,1,.06-.59.46.46,0,0,1,.18-.28.55.55,0,0,1,.34-.08h3.48A.55.55,0,0,1,89,228.36Z"></path><path class="b1a3991e-67d4-4881-bc6b-8496c876b2ea" d="M100.91,228.2a.5.5,0,0,1,.21.46v3.19a.46.46,0,0,1-.28.45,2.37,2.37,0,0,1-.94.13,3,3,0,0,1-.68-.06.65.65,0,0,1-.33-.18.55.55,0,0,1-.09-.34,1.61,1.61,0,0,0-.48-1.24,2.13,2.13,0,0,0-1.47-.43,2.24,2.24,0,0,0-1.95.93,4.5,4.5,0,0,0-.67,2.67,4.33,4.33,0,0,0,.71,2.67,2.38,2.38,0,0,0,2,.94,6.84,6.84,0,0,0,1.94-.28v-1.55H97.1a.66.66,0,0,1-.34-.07.49.49,0,0,1-.18-.28,2.3,2.3,0,0,1-.06-.6,2.22,2.22,0,0,1,.06-.59.46.46,0,0,1,.18-.28.57.57,0,0,1,.34-.08h4.4a.55.55,0,0,1,.34.08.47.47,0,0,1,.19.28,2.22,2.22,0,0,1,.06.59,2.3,2.3,0,0,1-.06.6.5.5,0,0,1-.19.28.64.64,0,0,1-.34.07h-.29V238a.93.93,0,0,1-.08.39.6.6,0,0,1-.25.25,7.7,7.7,0,0,1-1.89.67,10,10,0,0,1-2.14.22,5.17,5.17,0,0,1-2.68-.69,4.68,4.68,0,0,1-1.79-2,6.73,6.73,0,0,1-.64-3,7,7,0,0,1,.62-3,4.74,4.74,0,0,1,1.72-2,4.55,4.55,0,0,1,2.5-.7,2.77,2.77,0,0,1,2.41,1.1v-.51a.47.47,0,0,1,.27-.45,2,2,0,0,1,.86-.14A1.76,1.76,0,0,1,100.91,228.2Z"></path><path class="b1a3991e-67d4-4881-bc6b-8496c876b2ea" d="M128.13,228.36a.46.46,0,0,1,.18.28,1.78,1.78,0,0,1,.07.59,1.89,1.89,0,0,1-.07.6.43.43,0,0,1-.18.27.63.63,0,0,1-.34.08h-.63l-3.37,8.71a.82.82,0,0,1-.4.47,1.93,1.93,0,0,1-.83.13,1.74,1.74,0,0,1-.83-.14.78.78,0,0,1-.39-.46l-3.24-8.71h-.72a.63.63,0,0,1-.34-.08.43.43,0,0,1-.18-.27,2.3,2.3,0,0,1-.06-.6,2.17,2.17,0,0,1,.06-.59.46.46,0,0,1,.18-.28.55.55,0,0,1,.34-.08h4a.55.55,0,0,1,.34.08.46.46,0,0,1,.18.28,2.17,2.17,0,0,1,.06.59,2.3,2.3,0,0,1-.06.6.43.43,0,0,1-.18.27.63.63,0,0,1-.34.08h-.83l2,5.69,2.12-5.69H124a.63.63,0,0,1-.34-.08.43.43,0,0,1-.18-.27,2.3,2.3,0,0,1-.06-.6,2.17,2.17,0,0,1,.06-.59.46.46,0,0,1,.18-.28.55.55,0,0,1,.34-.08h3.75A.55.55,0,0,1,128.13,228.36Z"></path><path class="b1a3991e-67d4-4881-bc6b-8496c876b2ea" d="M139.87,228.42a.63.63,0,0,1,.14.46v2.8a.47.47,0,0,1-.27.45,2,2,0,0,1-.86.14,1.73,1.73,0,0,1-.79-.13.49.49,0,0,1-.22-.46v-1.41h-3.71v2.35h2.27a.49.49,0,0,1,.45.21,1.63,1.63,0,0,1,.13.79,1.55,1.55,0,0,1-.13.78.49.49,0,0,1-.45.21h-2.27v2.68H138v-1.87a.47.47,0,0,1,.27-.45,2.18,2.18,0,0,1,.9-.13,1.79,1.79,0,0,1,.83.13.46.46,0,0,1,.22.45v3.27a.62.62,0,0,1-.14.46.63.63,0,0,1-.46.14h-8.65a.63.63,0,0,1-.34-.08.43.43,0,0,1-.18-.27,2.3,2.3,0,0,1-.06-.6,2.22,2.22,0,0,1,.06-.59.46.46,0,0,1,.18-.28.55.55,0,0,1,.34-.08h.9v-7.21h-.9a.63.63,0,0,1-.34-.08.43.43,0,0,1-.18-.27,2.3,2.3,0,0,1-.06-.6,2.17,2.17,0,0,1,.06-.59.46.46,0,0,1,.18-.28.55.55,0,0,1,.34-.08h8.46A.62.62,0,0,1,139.87,228.42Z"></path><path class="b1a3991e-67d4-4881-bc6b-8496c876b2ea" d="M153.06,228.42a.63.63,0,0,1,.14.46v3.91a.47.47,0,0,1-.26.45,1.72,1.72,0,0,1-.78.14,1.45,1.45,0,0,1-.71-.13.52.52,0,0,1-.2-.46v-2.52h-1.68v7.12h2a.59.59,0,0,1,.35.08.46.46,0,0,1,.18.28,2.22,2.22,0,0,1,.06.59,2.3,2.3,0,0,1-.06.6.43.43,0,0,1-.18.27.67.67,0,0,1-.35.08h-6.32a.67.67,0,0,1-.35-.08.43.43,0,0,1-.18-.27,2.3,2.3,0,0,1-.06-.6,2.22,2.22,0,0,1,.06-.59.46.46,0,0,1,.18-.28.59.59,0,0,1,.35-.08h2v-7.12h-1.68v2.52a.47.47,0,0,1-.25.45,1.74,1.74,0,0,1-.79.14,1.48,1.48,0,0,1-.71-.13.52.52,0,0,1-.2-.46v-3.91a.59.59,0,0,1,.15-.46.6.6,0,0,1,.46-.14h8.37A.6.6,0,0,1,153.06,228.42Z"></path><path class="b1a3991e-67d4-4881-bc6b-8496c876b2ea" d="M165.69,228.42a.59.59,0,0,1,.14.46v2.8a.47.47,0,0,1-.27.45,2,2,0,0,1-.86.14,1.76,1.76,0,0,1-.79-.13.5.5,0,0,1-.21-.46v-1.41H160v2.35h2.26a.5.5,0,0,1,.46.21,1.76,1.76,0,0,1,.13.79,1.68,1.68,0,0,1-.13.78.5.5,0,0,1-.46.21H160v2.68h3.8v-1.87a.46.46,0,0,1,.28-.45,2.16,2.16,0,0,1,.89-.13,1.81,1.81,0,0,1,.84.13.48.48,0,0,1,.22.45v3.27a.67.67,0,0,1-.14.46.65.65,0,0,1-.46.14h-8.65a.63.63,0,0,1-.34-.08.41.41,0,0,1-.19-.27,2.3,2.3,0,0,1-.06-.6,2.22,2.22,0,0,1,.06-.59.43.43,0,0,1,.19-.28.55.55,0,0,1,.34-.08h.9v-7.21h-.9a.63.63,0,0,1-.34-.08.41.41,0,0,1-.19-.27,2.3,2.3,0,0,1-.06-.6,2.17,2.17,0,0,1,.06-.59.43.43,0,0,1,.19-.28.55.55,0,0,1,.34-.08h8.46A.59.59,0,0,1,165.69,228.42Z"></path><path class="b1a3991e-67d4-4881-bc6b-8496c876b2ea" d="M177.58,229.14a3.07,3.07,0,0,1,1,2.5,2.6,2.6,0,0,1-2.3,2.7,1.85,1.85,0,0,1,.8.58,6,6,0,0,1,.36.52c.11.19.23.42.37.69a6.84,6.84,0,0,0,.35.64,1.51,1.51,0,0,0,.37.46.6.6,0,0,0,.42.16h.17a.59.59,0,0,1,.35.08.46.46,0,0,1,.18.28,2.22,2.22,0,0,1,.06.59,2.3,2.3,0,0,1-.06.6.43.43,0,0,1-.18.27.67.67,0,0,1-.35.08h-.9a2.08,2.08,0,0,1-1.18-.3,2.64,2.64,0,0,1-.84-1c-.12-.22-.27-.51-.45-.89s-.24-.53-.35-.74a5.51,5.51,0,0,0-.37-.61,1.8,1.8,0,0,0-.64-.57,1.83,1.83,0,0,0-.84-.18H173v2.38h.9a.59.59,0,0,1,.35.08.46.46,0,0,1,.18.28,2.22,2.22,0,0,1,.06.59,2.3,2.3,0,0,1-.06.6.43.43,0,0,1-.18.27.67.67,0,0,1-.35.08h-4.21a.63.63,0,0,1-.34-.08.43.43,0,0,1-.18-.27,2.3,2.3,0,0,1-.06-.6,2.22,2.22,0,0,1,.06-.59.46.46,0,0,1,.18-.28.55.55,0,0,1,.34-.08h1v-7.21h-1a.63.63,0,0,1-.34-.08.43.43,0,0,1-.18-.27,2.3,2.3,0,0,1-.06-.6,2.17,2.17,0,0,1,.06-.59.46.46,0,0,1,.18-.28.55.55,0,0,1,.34-.08h4.89A4.6,4.6,0,0,1,177.58,229.14ZM173,233h1.39a2.4,2.4,0,0,0,1.4-.34,1.42,1.42,0,0,0,0-2.07,2.33,2.33,0,0,0-1.4-.34H173Z"></path><path class="b1a3991e-67d4-4881-bc6b-8496c876b2ea" d="M188.52,228.42a.82.82,0,0,1,.34.46l2.69,8.51h.8a.68.68,0,0,1,.35.07.46.46,0,0,1,.18.28,2.22,2.22,0,0,1,.06.59,2.3,2.3,0,0,1-.06.6.49.49,0,0,1-.18.28.67.67,0,0,1-.35.08h-3.93a.63.63,0,0,1-.34-.08.49.49,0,0,1-.18-.28,2.3,2.3,0,0,1-.06-.6,2.22,2.22,0,0,1,.06-.59.46.46,0,0,1,.18-.28.64.64,0,0,1,.34-.07h.8L188.8,236h-3.38l-.41,1.35h.68a.68.68,0,0,1,.35.07.46.46,0,0,1,.18.28,2.22,2.22,0,0,1,.06.59,2.3,2.3,0,0,1-.06.6.49.49,0,0,1-.18.28.67.67,0,0,1-.35.08h-3.75a.66.66,0,0,1-.34-.08.49.49,0,0,1-.18-.28,2.3,2.3,0,0,1-.06-.6,2.22,2.22,0,0,1,.06-.59.46.46,0,0,1,.18-.28.66.66,0,0,1,.34-.07h.78l2.35-7.21h-1.55a.63.63,0,0,1-.34-.08.49.49,0,0,1-.18-.28,2.3,2.3,0,0,1-.06-.6,2.22,2.22,0,0,1,.06-.59.46.46,0,0,1,.18-.28.64.64,0,0,1,.34-.07h4.4A1.07,1.07,0,0,1,188.52,228.42Zm-1.42,1.76-1.14,4h2.31l-1.11-4Z"></path><path class="b1a3991e-67d4-4881-bc6b-8496c876b2ea" d="M205.24,228.36a.46.46,0,0,1,.18.28,2.17,2.17,0,0,1,.06.59,2.3,2.3,0,0,1-.06.6.43.43,0,0,1-.18.27.67.67,0,0,1-.35.08h-.52v8.7a.51.51,0,0,1-.24.46,2,2,0,0,1-1.42,0,1.12,1.12,0,0,1-.37-.38l-4.17-6.91h0v5.3h1a.55.55,0,0,1,.34.08.47.47,0,0,1,.19.28,2.22,2.22,0,0,1,.06.59,2.3,2.3,0,0,1-.06.6.44.44,0,0,1-.19.27.63.63,0,0,1-.34.08h-3.75a.63.63,0,0,1-.34-.08.43.43,0,0,1-.18-.27,2.3,2.3,0,0,1-.06-.6,2.22,2.22,0,0,1,.06-.59.46.46,0,0,1,.18-.28.55.55,0,0,1,.34-.08H196v-7.21h-.62a.63.63,0,0,1-.34-.08.43.43,0,0,1-.18-.27,2.3,2.3,0,0,1-.06-.6,2.17,2.17,0,0,1,.06-.59.46.46,0,0,1,.18-.28.55.55,0,0,1,.34-.08h2.45a.55.55,0,0,1,.52.25l3.85,6.37h0v-4.72h-.85a.67.67,0,0,1-.35-.08.43.43,0,0,1-.18-.27,2.3,2.3,0,0,1-.06-.6,2.17,2.17,0,0,1,.06-.59.46.46,0,0,1,.18-.28.59.59,0,0,1,.35-.08h3.47A.59.59,0,0,1,205.24,228.36Z"></path><path class="b1a3991e-67d4-4881-bc6b-8496c876b2ea" d="M216.62,228.21a.47.47,0,0,1,.25.45v2.54a.51.51,0,0,1-.2.45,1.19,1.19,0,0,1-.65.13,1.3,1.3,0,0,1-.49-.07.59.59,0,0,1-.27-.22,3.12,3.12,0,0,0-1.13-1.07,3.21,3.21,0,0,0-1.58-.37,1.56,1.56,0,0,0-1.07.34,1.16,1.16,0,0,0-.38.89.6.6,0,0,0,.17.44,1.24,1.24,0,0,0,.48.3,7.42,7.42,0,0,0,1.4.33c.64.12,1.17.24,1.58.35a4.33,4.33,0,0,1,1.15.49,3.14,3.14,0,0,1,1.48,2.91,3.53,3.53,0,0,1-.43,1.78,3,3,0,0,1-1.29,1.19,4.87,4.87,0,0,1-2.13.42,3.85,3.85,0,0,1-2.62-.93v.35a.49.49,0,0,1-.23.45,1.72,1.72,0,0,1-.81.13,2,2,0,0,1-.85-.13.48.48,0,0,1-.25-.45v-3.1a.51.51,0,0,1,.2-.45,1.71,1.71,0,0,1,1.17-.05.55.55,0,0,1,.29.29,4,4,0,0,0,1.2,1.43,2.7,2.7,0,0,0,1.62.49,2,2,0,0,0,1.25-.34,1.11,1.11,0,0,0,.42-.92,1,1,0,0,0-.19-.63,1.45,1.45,0,0,0-.55-.43,3.12,3.12,0,0,0-.65-.24c-.24-.06-.59-.15-1.06-.24l-1.31-.31a4.63,4.63,0,0,1-1-.38,2.68,2.68,0,0,1-1.5-2.59,3.4,3.4,0,0,1,.45-1.75,3.13,3.13,0,0,1,1.28-1.19,4.07,4.07,0,0,1,1.88-.43,3.83,3.83,0,0,1,1.37.24,3.36,3.36,0,0,1,1.1.69v-.34a.48.48,0,0,1,.22-.45,1.77,1.77,0,0,1,.82-.14A1.9,1.9,0,0,1,216.62,228.21Z"></path><path class="b1a3991e-67d4-4881-bc6b-8496c876b2ea" d="M244,228.36a.46.46,0,0,1,.18.28,2.17,2.17,0,0,1,.06.59,2.3,2.3,0,0,1-.06.6.43.43,0,0,1-.18.27.67.67,0,0,1-.35.08h-.5l.13,7.21h.56a.55.55,0,0,1,.34.08.46.46,0,0,1,.18.28,2.22,2.22,0,0,1,.06.59,2.3,2.3,0,0,1-.06.6.43.43,0,0,1-.18.27.63.63,0,0,1-.34.08h-3.47a.7.7,0,0,1-.35-.08.43.43,0,0,1-.18-.27,2.3,2.3,0,0,1-.06-.6,2.22,2.22,0,0,1,.06-.59.46.46,0,0,1,.18-.28.61.61,0,0,1,.35-.08h.85l0-5.49-1.4,3.78a.94.94,0,0,1-.34.46,1.11,1.11,0,0,1-.6.13,1.13,1.13,0,0,1-.61-.13.9.9,0,0,1-.35-.46l-1.41-3.76-.05,5.47h.86a.55.55,0,0,1,.34.08.46.46,0,0,1,.18.28,2.22,2.22,0,0,1,.06.59,2.3,2.3,0,0,1-.06.6.43.43,0,0,1-.18.27.63.63,0,0,1-.34.08h-3.47a.63.63,0,0,1-.34-.08.43.43,0,0,1-.18-.27,2.3,2.3,0,0,1-.06-.6,2.22,2.22,0,0,1,.06-.59.46.46,0,0,1,.18-.28.55.55,0,0,1,.34-.08h.55l.14-7.21H234a.67.67,0,0,1-.35-.08.43.43,0,0,1-.18-.27,2.3,2.3,0,0,1-.06-.6,2.17,2.17,0,0,1,.06-.59.46.46,0,0,1,.18-.28.59.59,0,0,1,.35-.08h2.63a.73.73,0,0,1,.32.06.44.44,0,0,1,.18.22l1.7,4.56,1.69-4.56a.4.4,0,0,1,.18-.22.73.73,0,0,1,.32-.06h2.64A.59.59,0,0,1,244,228.36Z"></path><path class="b1a3991e-67d4-4881-bc6b-8496c876b2ea" d="M254.39,228.76a4.64,4.64,0,0,1,1.8,2,7.6,7.6,0,0,1,0,6.06,4.7,4.7,0,0,1-1.8,2,5.55,5.55,0,0,1-5.36,0,4.77,4.77,0,0,1-1.8-2,7.6,7.6,0,0,1,0-6.06,4.71,4.71,0,0,1,1.8-2,5.55,5.55,0,0,1,5.36,0Zm-4.64,2.35a4.58,4.58,0,0,0-.66,2.67,4.63,4.63,0,0,0,.66,2.68,2.53,2.53,0,0,0,3.92,0,4.63,4.63,0,0,0,.67-2.68,4.57,4.57,0,0,0-.67-2.67,2.53,2.53,0,0,0-3.92,0Z"></path><path class="b1a3991e-67d4-4881-bc6b-8496c876b2ea" d="M270.17,228.36a.46.46,0,0,1,.18.28,2.17,2.17,0,0,1,.06.59,2.3,2.3,0,0,1-.06.6.43.43,0,0,1-.18.27.63.63,0,0,1-.34.08h-.63l-3.37,8.71a.86.86,0,0,1-.4.47,2,2,0,0,1-.83.13,1.74,1.74,0,0,1-.83-.14.78.78,0,0,1-.39-.46l-3.25-8.71h-.71a.63.63,0,0,1-.34-.08.43.43,0,0,1-.18-.27,2.3,2.3,0,0,1-.06-.6,2.17,2.17,0,0,1,.06-.59.46.46,0,0,1,.18-.28.55.55,0,0,1,.34-.08h4a.57.57,0,0,1,.34.08.46.46,0,0,1,.18.28,2.17,2.17,0,0,1,.06.59,2.3,2.3,0,0,1-.06.6.43.43,0,0,1-.18.27.66.66,0,0,1-.34.08h-.83l2,5.69,2.13-5.69h-.66a.63.63,0,0,1-.34-.08.43.43,0,0,1-.18-.27,2.3,2.3,0,0,1-.06-.6,2.17,2.17,0,0,1,.06-.59.46.46,0,0,1,.18-.28.55.55,0,0,1,.34-.08h3.75A.55.55,0,0,1,270.17,228.36Z"></path><path class="b1a3991e-67d4-4881-bc6b-8496c876b2ea" d="M281.91,228.42a.63.63,0,0,1,.14.46v2.8a.47.47,0,0,1-.27.45,2.05,2.05,0,0,1-.87.14,1.71,1.71,0,0,1-.78-.13.49.49,0,0,1-.22-.46v-1.41H276.2v2.35h2.26a.5.5,0,0,1,.46.21,1.63,1.63,0,0,1,.13.79,1.55,1.55,0,0,1-.13.78.5.5,0,0,1-.46.21H276.2v2.68H280v-1.87a.47.47,0,0,1,.28-.45,2.16,2.16,0,0,1,.89-.13,1.81,1.81,0,0,1,.84.13.46.46,0,0,1,.22.45v3.27a.67.67,0,0,1-.14.46.65.65,0,0,1-.46.14H273a.63.63,0,0,1-.34-.08.43.43,0,0,1-.18-.27,2.3,2.3,0,0,1-.06-.6,2.22,2.22,0,0,1,.06-.59.46.46,0,0,1,.18-.28.55.55,0,0,1,.34-.08h.9v-7.21H273a.63.63,0,0,1-.34-.08.43.43,0,0,1-.18-.27,2.3,2.3,0,0,1-.06-.6,2.17,2.17,0,0,1,.06-.59.46.46,0,0,1,.18-.28.55.55,0,0,1,.34-.08h8.46A.63.63,0,0,1,281.91,228.42Z"></path><path class="b1a3991e-67d4-4881-bc6b-8496c876b2ea" d="M307.92,228.42a.63.63,0,0,1,.14.46v2.8a.47.47,0,0,1-.27.45,2.05,2.05,0,0,1-.87.14,1.71,1.71,0,0,1-.78-.13.49.49,0,0,1-.22-.46v-1.41H302.3v2.83h2.82a.5.5,0,0,1,.46.21,1.65,1.65,0,0,1,.13.79,1.6,1.6,0,0,1-.13.79.5.5,0,0,1-.46.21H302.3v2.29h2a.55.55,0,0,1,.34.08.46.46,0,0,1,.18.28,2.22,2.22,0,0,1,.06.59,2.3,2.3,0,0,1-.06.6.43.43,0,0,1-.18.27.63.63,0,0,1-.34.08h-5.51a.67.67,0,0,1-.35-.08.43.43,0,0,1-.18-.27,2.3,2.3,0,0,1-.06-.6,2.22,2.22,0,0,1,.06-.59.46.46,0,0,1,.18-.28.59.59,0,0,1,.35-.08H300v-7.21h-1.17a.67.67,0,0,1-.35-.08.43.43,0,0,1-.18-.27,2.3,2.3,0,0,1-.06-.6,2.17,2.17,0,0,1,.06-.59.46.46,0,0,1,.18-.28.59.59,0,0,1,.35-.08h8.64A.63.63,0,0,1,307.92,228.42Z"></path><path class="b1a3991e-67d4-4881-bc6b-8496c876b2ea" d="M319,228.76a4.62,4.62,0,0,1,1.79,2,7.49,7.49,0,0,1,0,6.06,4.68,4.68,0,0,1-1.79,2,5.57,5.57,0,0,1-5.37,0,4.68,4.68,0,0,1-1.79-2,7.49,7.49,0,0,1,0-6.06,4.62,4.62,0,0,1,1.79-2,5.57,5.57,0,0,1,5.37,0Zm-4.64,2.35a4.5,4.5,0,0,0-.67,2.67,4.56,4.56,0,0,0,.67,2.68,2.52,2.52,0,0,0,3.91,0,4.56,4.56,0,0,0,.67-2.68,4.5,4.5,0,0,0-.67-2.67,2.52,2.52,0,0,0-3.91,0Z"></path><path class="b1a3991e-67d4-4881-bc6b-8496c876b2ea" d="M332.53,229.14a3,3,0,0,1,1.05,2.5,2.61,2.61,0,0,1-2.31,2.7,1.85,1.85,0,0,1,.8.58,6,6,0,0,1,.36.52l.38.69a5.36,5.36,0,0,0,.34.64,1.68,1.68,0,0,0,.37.46.6.6,0,0,0,.42.16h.17a.59.59,0,0,1,.35.08.46.46,0,0,1,.18.28,2.22,2.22,0,0,1,.06.59,2.3,2.3,0,0,1-.06.6.43.43,0,0,1-.18.27.67.67,0,0,1-.35.08h-.9A2.08,2.08,0,0,1,332,239a2.64,2.64,0,0,1-.84-1c-.12-.22-.27-.51-.44-.89s-.25-.53-.36-.74a5.51,5.51,0,0,0-.37-.61,1.68,1.68,0,0,0-1.48-.75h-.6v2.38h.9a.59.59,0,0,1,.35.08.46.46,0,0,1,.18.28,2.22,2.22,0,0,1,.06.59,2.3,2.3,0,0,1-.06.6.43.43,0,0,1-.18.27.67.67,0,0,1-.35.08h-4.21a.63.63,0,0,1-.34-.08.43.43,0,0,1-.18-.27,2.3,2.3,0,0,1-.06-.6,2.22,2.22,0,0,1,.06-.59.46.46,0,0,1,.18-.28.55.55,0,0,1,.34-.08h1v-7.21h-1a.63.63,0,0,1-.34-.08.43.43,0,0,1-.18-.27,2.3,2.3,0,0,1-.06-.6,2.17,2.17,0,0,1,.06-.59.46.46,0,0,1,.18-.28.55.55,0,0,1,.34-.08h4.89A4.6,4.6,0,0,1,332.53,229.14ZM327.94,233h1.39a2.4,2.4,0,0,0,1.4-.34,1.42,1.42,0,0,0,0-2.07,2.33,2.33,0,0,0-1.4-.34h-1.39Z"></path><path class="b1a3991e-67d4-4881-bc6b-8496c876b2ea" d="M347.74,228.36a.46.46,0,0,1,.18.28,2.17,2.17,0,0,1,.06.59,2.3,2.3,0,0,1-.06.6.43.43,0,0,1-.18.27.63.63,0,0,1-.34.08h-.52l-.94,8.71a.7.7,0,0,1-.13.36.59.59,0,0,1-.33.19,3.69,3.69,0,0,1-.66.05,2,2,0,0,1-.89-.14.74.74,0,0,1-.38-.46l-1.49-4.37-1.5,4.37a.72.72,0,0,1-.39.46,2.05,2.05,0,0,1-.9.14,3.48,3.48,0,0,1-.65-.05.56.56,0,0,1-.33-.19.7.7,0,0,1-.12-.36l-.9-8.71h-.47a.63.63,0,0,1-.34-.08.43.43,0,0,1-.18-.27,2.3,2.3,0,0,1-.06-.6,2.17,2.17,0,0,1,.06-.59.46.46,0,0,1,.18-.28.55.55,0,0,1,.34-.08h3.66a.55.55,0,0,1,.34.08.46.46,0,0,1,.18.28,2.17,2.17,0,0,1,.06.59,2.3,2.3,0,0,1-.06.6.43.43,0,0,1-.18.27.63.63,0,0,1-.34.08h-1.09l.49,5.42,1.36-4a.52.52,0,0,1,.25-.33,1.31,1.31,0,0,1,.62-.11,1.81,1.81,0,0,1,.67.09.45.45,0,0,1,.26.28l1.36,4,.5-5.42h-.95a.67.67,0,0,1-.35-.08.43.43,0,0,1-.18-.27,2.3,2.3,0,0,1-.06-.6,2.17,2.17,0,0,1,.06-.59.46.46,0,0,1,.18-.28.59.59,0,0,1,.35-.08h3.47A.55.55,0,0,1,347.74,228.36Z"></path><path class="b1a3991e-67d4-4881-bc6b-8496c876b2ea" d="M356.39,228.42a.85.85,0,0,1,.33.46l2.69,8.51h.81a.64.64,0,0,1,.34.07.46.46,0,0,1,.18.28,2.22,2.22,0,0,1,.06.59,2.3,2.3,0,0,1-.06.6.49.49,0,0,1-.18.28.63.63,0,0,1-.34.08h-3.94a.63.63,0,0,1-.34-.08.49.49,0,0,1-.18-.28,2.3,2.3,0,0,1-.06-.6,2.22,2.22,0,0,1,.06-.59.46.46,0,0,1,.18-.28.64.64,0,0,1,.34-.07h.8l-.42-1.35h-3.37l-.42,1.35h.69a.66.66,0,0,1,.34.07.46.46,0,0,1,.18.28,2.22,2.22,0,0,1,.06.59,2.3,2.3,0,0,1-.06.6.49.49,0,0,1-.18.28.66.66,0,0,1-.34.08h-3.75a.67.67,0,0,1-.35-.08.49.49,0,0,1-.18-.28,2.3,2.3,0,0,1-.06-.6,2.22,2.22,0,0,1,.06-.59.46.46,0,0,1,.18-.28.68.68,0,0,1,.35-.07h.78l2.34-7.21h-1.55a.66.66,0,0,1-.34-.08.49.49,0,0,1-.18-.28,2.3,2.3,0,0,1-.06-.6,2.22,2.22,0,0,1,.06-.59.46.46,0,0,1,.18-.28.66.66,0,0,1,.34-.07h4.4A1.13,1.13,0,0,1,356.39,228.42ZM355,230.18l-1.15,4h2.31l-1.11-4Z"></path><path class="b1a3991e-67d4-4881-bc6b-8496c876b2ea" d="M371.26,229.14a3,3,0,0,1,1.05,2.5,2.6,2.6,0,0,1-2.3,2.7,1.85,1.85,0,0,1,.8.58,6,6,0,0,1,.36.52c.11.19.23.42.37.69a6.84,6.84,0,0,0,.35.64,1.51,1.51,0,0,0,.37.46.59.59,0,0,0,.41.16h.18a.55.55,0,0,1,.34.08.47.47,0,0,1,.19.28,2.22,2.22,0,0,1,.06.59,2.3,2.3,0,0,1-.06.6.44.44,0,0,1-.19.27.63.63,0,0,1-.34.08H372a2.14,2.14,0,0,1-1.19-.3,2.72,2.72,0,0,1-.83-1c-.13-.22-.27-.51-.45-.89s-.24-.53-.35-.74a5.51,5.51,0,0,0-.37-.61,1.89,1.89,0,0,0-.64-.57,1.86,1.86,0,0,0-.84-.18h-.6v2.38h.9a.55.55,0,0,1,.34.08.47.47,0,0,1,.19.28,2.22,2.22,0,0,1,.06.59,2.3,2.3,0,0,1-.06.6.44.44,0,0,1-.19.27.63.63,0,0,1-.34.08h-4.21a.63.63,0,0,1-.34-.08.43.43,0,0,1-.18-.27,2.3,2.3,0,0,1-.06-.6,2.22,2.22,0,0,1,.06-.59.46.46,0,0,1,.18-.28.55.55,0,0,1,.34-.08h1v-7.21h-1a.63.63,0,0,1-.34-.08.43.43,0,0,1-.18-.27,2.3,2.3,0,0,1-.06-.6,2.17,2.17,0,0,1,.06-.59.46.46,0,0,1,.18-.28.55.55,0,0,1,.34-.08h4.89A4.57,4.57,0,0,1,371.26,229.14ZM366.68,233h1.38a2.38,2.38,0,0,0,1.4-.34,1.39,1.39,0,0,0,0-2.07,2.31,2.31,0,0,0-1.4-.34h-1.38Z"></path><path class="b1a3991e-67d4-4881-bc6b-8496c876b2ea" d="M383.44,228.92a4.18,4.18,0,0,1,1.79,1.88,7.36,7.36,0,0,1,0,6,4.23,4.23,0,0,1-1.79,1.88,5.67,5.67,0,0,1-2.79.65h-4.37a.63.63,0,0,1-.34-.08.43.43,0,0,1-.18-.27,2.3,2.3,0,0,1-.06-.6,2.22,2.22,0,0,1,.06-.59.46.46,0,0,1,.18-.28.55.55,0,0,1,.34-.08h.9v-7.21h-.9a.63.63,0,0,1-.34-.08.43.43,0,0,1-.18-.27,2.3,2.3,0,0,1-.06-.6,2.17,2.17,0,0,1,.06-.59.46.46,0,0,1,.18-.28.55.55,0,0,1,.34-.08h4.37A5.67,5.67,0,0,1,383.44,228.92Zm-3.94,8.37h1a2.64,2.64,0,0,0,2.17-.89,5.07,5.07,0,0,0,0-5.24,2.67,2.67,0,0,0-2.17-.89h-1Z"></path><path class="bf5ed9d2-d4da-4275-8eb9-178373799b61" d="M29.43,151.91a.67.67,0,0,1,.29.62v4.88a.63.63,0,0,1-.39.61,3.29,3.29,0,0,1-1.29.19,3.63,3.63,0,0,1-.92-.09.83.83,0,0,1-.45-.24.8.8,0,0,1-.13-.47,2.93,2.93,0,0,0-.69-2,2.55,2.55,0,0,0-2-.76,3.11,3.11,0,0,0-2.68,1.27,6.22,6.22,0,0,0-.92,3.66,6,6,0,0,0,1,3.65A3.22,3.22,0,0,0,24,164.48a7.39,7.39,0,0,0,2.12-.3,12.49,12.49,0,0,0,2.21-.91.86.86,0,0,1,.38-.1q.6,0,1,1.05a2.5,2.5,0,0,1,.18.87.94.94,0,0,1-.58.92,12.09,12.09,0,0,1-5.42,1.35,7,7,0,0,1-3.67-1,6.4,6.4,0,0,1-2.46-2.73,9.28,9.28,0,0,1-.87-4.14,9.52,9.52,0,0,1,.85-4.13,6.52,6.52,0,0,1,2.36-2.73,6.27,6.27,0,0,1,3.41-1,3.7,3.7,0,0,1,3.3,1.6v-.8a.64.64,0,0,1,.37-.62,2.81,2.81,0,0,1,1.18-.18A2.28,2.28,0,0,1,29.43,151.91Z"></path><path class="bf5ed9d2-d4da-4275-8eb9-178373799b61" d="M45.9,152.68a6.29,6.29,0,0,1,2.46,2.71,10.31,10.31,0,0,1,0,8.29,6.4,6.4,0,0,1-2.46,2.73,7.54,7.54,0,0,1-7.33,0,6.4,6.4,0,0,1-2.46-2.73,10.31,10.31,0,0,1,0-8.29,6.29,6.29,0,0,1,2.46-2.71,7.54,7.54,0,0,1,7.33,0Zm-6.34,3.2a7.74,7.74,0,0,0,0,7.32,3.44,3.44,0,0,0,5.35,0,7.74,7.74,0,0,0,0-7.32,3.45,3.45,0,0,0-5.35,0Z"></path><path class="bf5ed9d2-d4da-4275-8eb9-178373799b61" d="M67.33,152.2a.86.86,0,0,1,.19.63v3.84a.63.63,0,0,1-.36.61,2.69,2.69,0,0,1-1.18.19,2.22,2.22,0,0,1-1.08-.18.65.65,0,0,1-.29-.62v-1.93h-5v3.87h3.86a.69.69,0,0,1,.63.29,2.44,2.44,0,0,1,.17,1.08,2.41,2.41,0,0,1-.17,1.08.68.68,0,0,1-.63.28H59.65v3.14h2.76a.89.89,0,0,1,.47.1.76.76,0,0,1,.25.39,3.32,3.32,0,0,1,.08.81,3.35,3.35,0,0,1-.08.82.69.69,0,0,1-.25.38.89.89,0,0,1-.47.1H54.87a.86.86,0,0,1-.47-.1.69.69,0,0,1-.25-.38,3.35,3.35,0,0,1-.08-.82,3.32,3.32,0,0,1,.08-.81.76.76,0,0,1,.25-.39.86.86,0,0,1,.47-.1h1.61v-9.87H54.87a.86.86,0,0,1-.47-.1.65.65,0,0,1-.25-.38,3.32,3.32,0,0,1-.08-.81,3.35,3.35,0,0,1,.08-.82.69.69,0,0,1,.25-.38.86.86,0,0,1,.47-.11H66.7A.83.83,0,0,1,67.33,152.2Z"></path><path class="bf5ed9d2-d4da-4275-8eb9-178373799b61" d="M86.2,152.2a.86.86,0,0,1,.19.63v3.84a.62.62,0,0,1-.37.61,2.66,2.66,0,0,1-1.18.19,2.28,2.28,0,0,1-1.08-.18.67.67,0,0,1-.29-.62v-1.93h-5v3.87h3.86a.67.67,0,0,1,.62.29,2.28,2.28,0,0,1,.18,1.08,2.25,2.25,0,0,1-.18,1.08.67.67,0,0,1-.62.28H78.52v3.14h2.75a.86.86,0,0,1,.47.1A.7.7,0,0,1,82,165a2.88,2.88,0,0,1,.08.81,2.92,2.92,0,0,1-.08.82.64.64,0,0,1-.25.38.86.86,0,0,1-.47.1H73.73a.89.89,0,0,1-.47-.1.63.63,0,0,1-.24-.38,2.85,2.85,0,0,1-.09-.82A2.82,2.82,0,0,1,73,165a.69.69,0,0,1,.24-.39.89.89,0,0,1,.47-.1h1.62v-9.87H73.73a.89.89,0,0,1-.47-.1.6.6,0,0,1-.24-.38,2.82,2.82,0,0,1-.09-.81,2.85,2.85,0,0,1,.09-.82.63.63,0,0,1,.24-.38.88.88,0,0,1,.47-.11H85.57A.86.86,0,0,1,86.2,152.2Z"></path><path class="bf5ed9d2-d4da-4275-8eb9-178373799b61" d="M104.81,152.2a.86.86,0,0,1,.19.63v3.84a.62.62,0,0,1-.37.61,2.63,2.63,0,0,1-1.18.19,2.2,2.2,0,0,1-1.07-.18.66.66,0,0,1-.3-.62v-1.93H97V158h3.1a.66.66,0,0,1,.62.29,2.28,2.28,0,0,1,.18,1.08,2.25,2.25,0,0,1-.18,1.08.66.66,0,0,1-.62.28H97v3.67h5.21v-2.56a.65.65,0,0,1,.37-.62,3.05,3.05,0,0,1,1.23-.18,2.49,2.49,0,0,1,1.14.17.66.66,0,0,1,.31.63v4.46a.91.91,0,0,1-.19.63.88.88,0,0,1-.64.2H92.6a.89.89,0,0,1-.47-.1.69.69,0,0,1-.25-.38,3.35,3.35,0,0,1-.08-.82,3.32,3.32,0,0,1,.08-.81.76.76,0,0,1,.25-.39.89.89,0,0,1,.47-.1h1.23v-9.87H92.6a.89.89,0,0,1-.47-.1.65.65,0,0,1-.25-.38,3.32,3.32,0,0,1-.08-.81,3.35,3.35,0,0,1,.08-.82.69.69,0,0,1,.25-.38.88.88,0,0,1,.47-.11h11.58A.85.85,0,0,1,104.81,152.2Z"></path><path class="bf5ed9d2-d4da-4275-8eb9-178373799b61" d="M123.68,152.2a.86.86,0,0,1,.19.63v3.84a.62.62,0,0,1-.37.61,2.69,2.69,0,0,1-1.18.19,2.25,2.25,0,0,1-1.08-.18.67.67,0,0,1-.29-.62v-1.93h-5.08V158H119a.68.68,0,0,1,.62.29,2.28,2.28,0,0,1,.18,1.08,2.25,2.25,0,0,1-.18,1.08.68.68,0,0,1-.62.28h-3.1v3.67h5.21v-2.56a.63.63,0,0,1,.37-.62,3.05,3.05,0,0,1,1.23-.18,2.54,2.54,0,0,1,1.14.17.67.67,0,0,1,.3.63v4.46a.86.86,0,0,1-.19.63.85.85,0,0,1-.63.2H111.47a.86.86,0,0,1-.47-.1.64.64,0,0,1-.25-.38,2.92,2.92,0,0,1-.08-.82,2.88,2.88,0,0,1,.08-.81.7.7,0,0,1,.25-.39.86.86,0,0,1,.47-.1h1.23v-9.87h-1.23a.86.86,0,0,1-.47-.1.61.61,0,0,1-.25-.38,2.88,2.88,0,0,1-.08-.81,2.92,2.92,0,0,1,.08-.82.64.64,0,0,1,.25-.38.86.86,0,0,1,.47-.11H123A.88.88,0,0,1,123.68,152.2Z"></path><path class="bf5ed9d2-d4da-4275-8eb9-178373799b61" d="M105.66,7.6c-.31-3-4.9-3.66-6.56-3.88a7.2,7.2,0,0,0-1.6.18c-1.92-.12-3.7-.18-5.29-.18H88.09c-.79-.86-1.21-1.12-1.83-1.14l-.8.18a2.21,2.21,0,0,1-1-.31l-.22-.1-1.44.22a13.86,13.86,0,0,0-2.57-.38H77a3.46,3.46,0,0,0-3.14,1.55c-4.13.12-6.28.17-6.5.17a3.3,3.3,0,0,1-1.41-.32L65.7,3.5l-.23,0a26.92,26.92,0,0,1-5.07.36h-.59a1.11,1.11,0,0,0-1,.69,11.17,11.17,0,0,0-2.54,4.28l0,.26c0,.18,0,.62,1,6.41.32,2.18,1.75,4.75,6.55,4.75l.34-.07a14.07,14.07,0,0,1,4.07-1.07,32,32,0,0,0,3.25.37h1.21a4.12,4.12,0,0,0,.86-.09c.06.77.1,1.38.1,1.82V27a7.12,7.12,0,0,0,.37,1.88,41.63,41.63,0,0,1-.55,6.6l0,.17,0,.17a14.32,14.32,0,0,1,.38,2.33,24.36,24.36,0,0,1-1.1,8.22l-.07.2,0,.21a39.86,39.86,0,0,1,.75,4.68L73,62l.37,3.76a17.32,17.32,0,0,1-.93,4.62l0,.61,0,.27a14.37,14.37,0,0,1,.9,2.87,34.16,34.16,0,0,0-.56,6.06l0,.81h.43v.19c0,1.22-.13,3.78-.38,7.65a4,4,0,0,0,.86,2.57c.92,2.54,3.26,3.85,7,3.85a52.63,52.63,0,0,0,5.92-.47,1.32,1.32,0,0,0,.43.09h.81L88,94.7c2.07-1.33,3-2.44,3-3.58-.25-2.85-.37-5-.37-6.31,0-.83.12-2.47.37-5.07a52.91,52.91,0,0,0-1-6c0-1.28-.07-3.59-.19-6.84a5.5,5.5,0,0,1,.16-1.15l0-.14v-.13a26.15,26.15,0,0,1-.19-2.79V55.15a7.57,7.57,0,0,1,.5-3.29l.1-.22-1.18-7.27q.19-11,.38-13.93a54.75,54.75,0,0,1-.38-5.72c0-.43.12-2.1.34-5,3-.21,5-.32,6.12-.33a11.74,11.74,0,0,0,3.49.56l1-.16a18.26,18.26,0,0,0,3.11.55l.32,0,.25-.23a5,5,0,0,0,1.79-3.88V13.35a9.66,9.66,0,0,1,.52-3.54l.09-.23,0-.24a6.82,6.82,0,0,0-.57-1.74"></path><path class="bf5ed9d2-d4da-4275-8eb9-178373799b61" d="M178.63,2.83l-.37-.14-.31.16c-.14.07-.94.31-5.1.48l-2-.55h-.2c-1.76,0-4,.86-4.58,5.06V8l0,.13a30.38,30.38,0,0,1,.75,4.82,34.28,34.28,0,0,1-.38,3.64A15.06,15.06,0,0,1,165,23.72l-.09.36A77.14,77.14,0,0,1,163.6,39v1.53h-.43v.76a16,16,0,0,1-.92,5.82l-.08.2.22,1.23v2.26a27.12,27.12,0,0,0-.75,7.07c-.52,3.58-.9,6.49-1.16,8.75l-.39-2a37.42,37.42,0,0,0-1.71-9.84V53a4.2,4.2,0,0,0-.2-1.61c-.23-7.7-.51-10.23-1-11.05,0-2-.2-4.82-.56-8.44V23.81c-.52-4.54-1-7.7-1.34-9.55v-1a21.35,21.35,0,0,1,.75-4l0-.12V9c-.26-3.57-1.37-5.66-3.26-6.23l-.21,0c-.09,0-.19,0-2.87.38H145.3a3.48,3.48,0,0,0-1.67.39c-3.63.11-4.41,1.91-4.41,3.42v1a5.65,5.65,0,0,0,.56,2.68c-.12,2.57-.18,4.7-.18,6.31v2.36a27.86,27.86,0,0,1-1.12,6.31v6.25a29.23,29.23,0,0,1-.49,3.34h-.23l0,.71a32.29,32.29,0,0,1-1.1,7.45l-.07.18,0,.21a8.61,8.61,0,0,1,.18,1.59v1.14a38.48,38.48,0,0,1-1.13,6.42l-.05.24.09.23a4,4,0,0,1,.34,1.28l-.59,3v1.79l-1.08,6.82c-.17-.79-.43-1.89-.86-3.45V60.39c-1.42-8.77-1.71-11.12-1.71-11.66-.88-6.1-1.33-9.75-1.33-10.86s.07-2.63.19-4.86c-.25-2.86-.67-6-1.21-9.17-.35-5.08-.77-7-1.28-7.66.33-3.17.52-5.81.52-7.9a5.08,5.08,0,0,0-.79-2.9,2.74,2.74,0,0,0-3-2.59h-1.15a14.91,14.91,0,0,0-2.1.38h-2.18a15.27,15.27,0,0,0-4.32-.95h-1.15c-1.64,0-2.8,1.42-3.43,4.4,0,.15,0,.33,1.18,5.58l2.26,7.18a28.78,28.78,0,0,0,.78,5.53,61.54,61.54,0,0,0,.75,8.36v2.57l3.42,27a1.89,1.89,0,0,0-.17.7l0,.22c.37,1.24,1.32,7,2.83,17.07V82a9.54,9.54,0,0,1-.36,2.49l0,.19a1.32,1.32,0,0,0,.21.77c.22,3.42.5,4.87,1,5.42.47,2.91,5.52,3.42,7.3,3.57h2.67a21.74,21.74,0,0,1,4.16-.75l2.36.19a4,4,0,0,0,4-3l0-.26a1.55,1.55,0,0,0-.07-.43,2.83,2.83,0,0,0,.2-.43l.06-.27c0-.13.12-1,1-6.61v-.14l0-.13a19.5,19.5,0,0,1-.36-2.14l.17-.67c.4-3.05.86-4.23,1.26-4.78.71-1.36,1.05-4.28,1-8.83.57-3.39.95-6,1.16-7.79V65a58.67,58.67,0,0,0,1.15,8c.54,5.48,1,8.82,1.51,10.22a20,20,0,0,0-.17,2.57v2.68a7.29,7.29,0,0,0,.36,2.31l-.17.09v.47a2.87,2.87,0,0,0,.74,1.82l.19.24.31,0c6.21.77,10.19,1.15,12.14,1.15a15.59,15.59,0,0,1,2.14.54l.19.06.19,0A4.87,4.87,0,0,0,168.48,94a2.93,2.93,0,0,0,3-3.23V89.63a54.5,54.5,0,0,1,1.88-12.13l.05-.16,0-.16a20.45,20.45,0,0,1-.37-2.92v-.77a46.4,46.4,0,0,1,1-6.31v-2.3A55.66,55.66,0,0,1,175.25,56q1.33-16.5,2.48-20.11c.39-2.56,1-8.55,1.89-17.74,2.43-8,2.73-9.77,2.73-10.37,0-2.14-1.25-3.79-3.7-4.9"></path><path class="bf5ed9d2-d4da-4275-8eb9-178373799b61" d="M232,40.51c0-.21.06-1.07.18-2.62l0-.38-.29-.25c-.39-.34-.59-.53-.69-.63,0-2.44.06-4.58.19-6.45,0-.27-.07-1-.19-2.06.12-2.47.19-4.09.19-5l-.22-6.31c-.77-2.75-1.71-4.62-3-5.77a91.61,91.61,0,0,1-7.58-6c-1.37-1.06-4.36-2-9.26-2.84h-.93c-3.48.76-6.71,1.34-9.53,1.71-2.91,0-4.86.94-5.79,2.79a31.91,31.91,0,0,0-4.74,5.44c-1.12.38-2.11,2.37-3.18,9.12v7.32l.76,5.83c0,5.72.07,13.15.2,22.19a26.83,26.83,0,0,1,.38,3.89v3.38c-.39,4.3-.39,4.56-.39,4.66V71.4l-.59,4.16.67,2.81c1.61,3.12,1.81,3.78,1.84,4,.86,3.92,2.3,6.63,4.49,8.13a15.92,15.92,0,0,1,4.11,2.14l.15.13.19,0a78.48,78.48,0,0,1,8,2.27l3.24,0a17,17,0,0,0,2.68-.57h4c1.62,0,4.08-1.11,7.63-3.48a17.31,17.31,0,0,1,3.22-2.84h.43l.22-.36c2.1-3.51,3.17-6.71,3.17-9.51v-15c0-8.16.25-15,.76-20.33v-.2c-.24-1.37-.37-2.14-.37-2.3m-17,1.36c.78,7.2.95,9,.95,9.29V65.27c0,.11,0,.66-.38,3.64V75c0,2.73-.81,4.55-2.46,5.53a1.36,1.36,0,0,0-.48-.16h-.13l-1.92,0c-3.94-.93-5.86-2.63-5.86-5.19v-7.6c0-1.33.07-3.37.2-6.08v-.2l-.09-.18a4.51,4.51,0,0,1-.5-1.76V52.7a14.76,14.76,0,0,1,.38-2.88,7.58,7.58,0,0,0-.56-2.61c.12-1.71.18-3.22.18-4.47V26.2c.24-5.41,1-6.06,1-6.09h.49l.21-.43c.59-1.26,1.91-1.87,4-1.87h1.53c.14,0,.72.1,2.17,1.35l.22.18h.28s1,.16,1.71,5.56v8.63l-.92,7Z"></path><path class="bf5ed9d2-d4da-4275-8eb9-178373799b61" d="M281.69,5.47v-.2c0-2.34-1.61-4.09-4.78-5.19L276.7,0l-.23.05a34.6,34.6,0,0,1-6.27,1c-1.71,0-4,1.55-7.25,4.9a31.35,31.35,0,0,1-2.45,2.57l-.3.2a17.29,17.29,0,0,0-5.07,6.78l-.12.33.15.32a4.06,4.06,0,0,1,.33,1.82v1.81a8.19,8.19,0,0,1-.38,2.2l0,.15v.16c.51,4.76,3,5.76,5,5.76a13.55,13.55,0,0,0,3.8-1.12c-.12,2-.17,3.58-.17,4.75v1.46a67.93,67.93,0,0,0-.62,8.59v.13l.61,2V54c0,.13-.06.79-.43,3.85v4.24a14.13,14.13,0,0,0,.4,2.66l-.4,3.58v5a34.8,34.8,0,0,1-.4,4.89l.4,6.25a9.2,9.2,0,0,0-1,3.78v.4c0,4.38,1.49,7,4.54,7.86A65.38,65.38,0,0,1,274.2,98l.19,0v.06l1-.32c3.69-1.13,5.41-2.4,5.41-4v-.4a64.05,64.05,0,0,1,.81-10.16V83a100.29,100.29,0,0,1-.81-10.58A30.17,30.17,0,0,1,281,69c-.13-7.33-.2-13.91-.2-19.54V42a187.75,187.75,0,0,1,1-22.26v-.13c-.13-7-.2-11.59-.2-14.11"></path><path class="bf5ed9d2-d4da-4275-8eb9-178373799b61" d="M341.93,67.2c-.34-3.33-1.91-4.43-3.42-4.71-.13-8.77-.36-14.49-.66-16.92a51.26,51.26,0,0,1,.47-6.78c-.19-2.44-.29-4.29-.29-5.43a31.61,31.61,0,0,1,.47-3.63,8.65,8.65,0,0,0-.47-2.41,49.16,49.16,0,0,1,1.25-12.62l.07-.25-.09-.24a42.36,42.36,0,0,1-1.83-9.74C337.43,2.8,336.5.68,332,0h-.36l-2.07.59A23.13,23.13,0,0,0,325.6,0a15.22,15.22,0,0,0-3.71.83c-1,.09-2.31,1.07-5.53,8.55-.6,2.74-1,3.26-1,3.34l-.14.19c-2.85,6.36-3.57,7.7-3.67,7.85l-.18.14-.07.21c-1.54,4.33-2.57,7.12-3.13,8.31C306.7,30.79,306,32,306,33.16v1a6.57,6.57,0,0,0-1.22,3.78,75.43,75.43,0,0,0-3,7.37c-1.53,2.4-2.35,4.19-2.47,5.46-1.25,1.39-1.43,2-1.43,2.27a22,22,0,0,1-3.24,7.7l-1.12,2.93c-1.44,2.14-1.55,2.53-1.55,2.87s0,.34.8,1.82a1.3,1.3,0,0,1-.11.51l-.11.23,0,.26a14.62,14.62,0,0,1,.18,2.09v.43a5,5,0,0,1-.53,1.89l-.11.25.07.28c1,3.79,2.7,5.71,5.08,5.71l.35-.08a18.41,18.41,0,0,1,2.62-.7,10.82,10.82,0,0,0,2.94.77h0l1.75-.19c2.54.13,4.32.2,5.29.2a39.19,39.19,0,0,0,4.7-.81h5a1,1,0,0,1,.86.43,8.43,8.43,0,0,1-.37,1.56l-.1.33.18.3a4.14,4.14,0,0,1,.69,1.62v.4A91.89,91.89,0,0,1,320.64,94c0,1.28,1.32,2.48,4.27,3.94l.32.16.33-.13a6.39,6.39,0,0,1,1.93-.55,18.42,18.42,0,0,1,2.77.19l.11,0,1.42-.22c4.32,0,6.52-1.29,6.52-3.83a12.44,12.44,0,0,0-.47-2.78A6.66,6.66,0,0,1,338,89.1l0-.15V88.8a28.64,28.64,0,0,1-.2-2.93V84.59c0-1.24.06-3.06.17-5.41l.24-.1a1.82,1.82,0,0,0,.46.06c2,0,3.17-1.9,3.43-5.71V71.59a34,34,0,0,0-.21-4.39M322.27,36.66v.43a20.93,20.93,0,0,0-.63,4v2.82c0,2.84-.06,5.43-.19,7.84.13.94.19,3.23.19,6.81v1.21l.05.25a15.72,15.72,0,0,1,.75,3.17l-.33.41A5.48,5.48,0,0,1,320.4,63l-.4-.24-.39.21a6.09,6.09,0,0,1-2.65.92h-3.51a26.46,26.46,0,0,1-4.51-.89,41.15,41.15,0,0,1,3.22-6.45l.07-.2a48.48,48.48,0,0,1,5.08-12.75c1.72-4.66,3.21-8.56,4.51-11.66a3.45,3.45,0,0,0-.16.85V34a4.81,4.81,0,0,0,.62,2.7"></path><path class="bf5ed9d2-d4da-4275-8eb9-178373799b61" d="M271,151.91a.65.65,0,0,1,.29.62v4.88a.62.62,0,0,1-.38.61,3.29,3.29,0,0,1-1.29.19,3.58,3.58,0,0,1-.92-.09.79.79,0,0,1-.45-.24.73.73,0,0,1-.13-.47,2.93,2.93,0,0,0-.69-2,2.56,2.56,0,0,0-2-.76,3.1,3.1,0,0,0-2.67,1.27,6.22,6.22,0,0,0-.92,3.66,6,6,0,0,0,1,3.65,3.25,3.25,0,0,0,2.75,1.29,7.44,7.44,0,0,0,2.12-.3,12.49,12.49,0,0,0,2.21-.91.83.83,0,0,1,.38-.1q.6,0,1,1.05a2.5,2.5,0,0,1,.18.87,1,1,0,0,1-.58.92,12.13,12.13,0,0,1-5.43,1.35,7,7,0,0,1-3.66-1,6.4,6.4,0,0,1-2.46-2.73,10.37,10.37,0,0,1,0-8.27,6.5,6.5,0,0,1,2.35-2.73,6.3,6.3,0,0,1,3.41-1,3.69,3.69,0,0,1,3.3,1.6v-.8a.66.66,0,0,1,.37-.62,2.87,2.87,0,0,1,1.18-.18A2.22,2.22,0,0,1,271,151.91Z"></path><path class="bf5ed9d2-d4da-4275-8eb9-178373799b61" d="M287.43,152.68a6.29,6.29,0,0,1,2.46,2.71,10.31,10.31,0,0,1,0,8.29,6.4,6.4,0,0,1-2.46,2.73,7.56,7.56,0,0,1-7.34,0,6.44,6.44,0,0,1-2.45-2.73,10.31,10.31,0,0,1,0-8.29,6.33,6.33,0,0,1,2.45-2.71,7.56,7.56,0,0,1,7.34,0Zm-6.35,3.2a7.82,7.82,0,0,0,0,7.32,3.45,3.45,0,0,0,5.36,0,7.74,7.74,0,0,0,0-7.32,3.46,3.46,0,0,0-5.36,0Z"></path><path class="bf5ed9d2-d4da-4275-8eb9-178373799b61" d="M309.71,152.12a.69.69,0,0,1,.25.38,3.35,3.35,0,0,1,.08.82,3.32,3.32,0,0,1-.08.81.65.65,0,0,1-.25.38.86.86,0,0,1-.47.1h-.68l.17,9.87h.77a.89.89,0,0,1,.47.1.69.69,0,0,1,.24.39,2.82,2.82,0,0,1,.09.81,2.85,2.85,0,0,1-.09.82.63.63,0,0,1-.24.38.89.89,0,0,1-.47.1h-4.75a.86.86,0,0,1-.47-.1.69.69,0,0,1-.25-.38,3.35,3.35,0,0,1-.08-.82A3.32,3.32,0,0,1,304,165a.76.76,0,0,1,.25-.39.86.86,0,0,1,.47-.1h1.17l-.08-7.52-1.92,5.18a1.2,1.2,0,0,1-.45.63,1.6,1.6,0,0,1-.83.18,1.64,1.64,0,0,1-.84-.18,1.28,1.28,0,0,1-.47-.63L299.4,157l-.07,7.48h1.18a.89.89,0,0,1,.47.1.76.76,0,0,1,.25.39,3.32,3.32,0,0,1,.08.81,3.35,3.35,0,0,1-.08.82.69.69,0,0,1-.25.38.89.89,0,0,1-.47.1h-4.75a.89.89,0,0,1-.47-.1.69.69,0,0,1-.25-.38,3.35,3.35,0,0,1-.08-.82A3.32,3.32,0,0,1,295,165a.76.76,0,0,1,.25-.39.89.89,0,0,1,.47-.1h.75l.19-9.87H296a.89.89,0,0,1-.47-.1.6.6,0,0,1-.24-.38,2.82,2.82,0,0,1-.09-.81,2.85,2.85,0,0,1,.09-.82.63.63,0,0,1,.24-.38A.88.88,0,0,1,296,152h3.61a1,1,0,0,1,.44.09.53.53,0,0,1,.24.3l2.33,6.24,2.31-6.24a.5.5,0,0,1,.25-.3.91.91,0,0,1,.43-.09h3.62A.86.86,0,0,1,309.71,152.12Z"></path><path class="bf5ed9d2-d4da-4275-8eb9-178373799b61" d="M326.63,153.32a5.55,5.55,0,0,1,0,7.59,6.52,6.52,0,0,1-4.42,1.32H320.3v2.25h2.76a.89.89,0,0,1,.47.1.69.69,0,0,1,.24.39,2.82,2.82,0,0,1,.09.81,2.85,2.85,0,0,1-.09.82.63.63,0,0,1-.24.38.89.89,0,0,1-.47.1h-7.8a.89.89,0,0,1-.47-.1.69.69,0,0,1-.25-.38,3.35,3.35,0,0,1-.08-.82,3.32,3.32,0,0,1,.08-.81.76.76,0,0,1,.25-.39.89.89,0,0,1,.47-.1h1.87v-9.87h-1.87a.89.89,0,0,1-.47-.1.65.65,0,0,1-.25-.38,3.32,3.32,0,0,1-.08-.81,3.35,3.35,0,0,1,.08-.82.69.69,0,0,1,.25-.38.88.88,0,0,1,.47-.11h6.95A6.57,6.57,0,0,1,326.63,153.32Zm-6.33,6.18h1.51a3.72,3.72,0,0,0,2.28-.58,2.13,2.13,0,0,0,.77-1.81,2.09,2.09,0,0,0-.77-1.79,3.72,3.72,0,0,0-2.28-.58H320.3Z"></path><path class="bf5ed9d2-d4da-4275-8eb9-178373799b61" d="M342.24,152.21a1.15,1.15,0,0,1,.46.62l3.68,11.65h1.1a.86.86,0,0,1,.47.1.65.65,0,0,1,.25.38,3.32,3.32,0,0,1,.08.81,3.2,3.2,0,0,1-.08.81.68.68,0,0,1-.25.39.86.86,0,0,1-.47.11H342.1a.88.88,0,0,1-.47-.11.68.68,0,0,1-.25-.39,3.2,3.2,0,0,1-.08-.81,3.32,3.32,0,0,1,.08-.81.65.65,0,0,1,.25-.38.89.89,0,0,1,.47-.1h1.09l-.57-1.84H338l-.57,1.84h.94a.89.89,0,0,1,.47.1.6.6,0,0,1,.24.38,2.82,2.82,0,0,1,.09.81,2.73,2.73,0,0,1-.09.81.63.63,0,0,1-.24.39.88.88,0,0,1-.47.11h-5.13a.86.86,0,0,1-.47-.11.68.68,0,0,1-.25-.39,3.2,3.2,0,0,1-.08-.81,3.32,3.32,0,0,1,.08-.81.65.65,0,0,1,.25-.38.86.86,0,0,1,.47-.1h1.06l3.22-9.87H335.4a.78.78,0,0,1-.47-.11.64.64,0,0,1-.25-.38,2.92,2.92,0,0,1-.08-.82,2.88,2.88,0,0,1,.08-.81.64.64,0,0,1,.25-.38.86.86,0,0,1,.47-.1h6A1.57,1.57,0,0,1,342.24,152.21Zm-1.94,2.4L338.73,160h3.17l-1.53-5.42Z"></path><path class="bf5ed9d2-d4da-4275-8eb9-178373799b61" d="M366.31,152.12a.69.69,0,0,1,.25.38,3.35,3.35,0,0,1,.08.82,3.32,3.32,0,0,1-.08.81.65.65,0,0,1-.25.38.89.89,0,0,1-.47.1h-.72v11.91a.71.71,0,0,1-.32.63,2,2,0,0,1-1.08.21,1.79,1.79,0,0,1-.87-.16,1.44,1.44,0,0,1-.5-.51l-5.71-9.46h-.05v7.25H358a.86.86,0,0,1,.47.1.7.7,0,0,1,.25.39,2.88,2.88,0,0,1,.08.81,2.92,2.92,0,0,1-.08.82.64.64,0,0,1-.25.38.86.86,0,0,1-.47.1h-5.12a.86.86,0,0,1-.47-.1.64.64,0,0,1-.25-.38,2.92,2.92,0,0,1-.08-.82,2.88,2.88,0,0,1,.08-.81.7.7,0,0,1,.25-.39.86.86,0,0,1,.47-.1h.85v-9.87h-.85a.86.86,0,0,1-.47-.1.61.61,0,0,1-.25-.38,2.88,2.88,0,0,1-.08-.81,2.92,2.92,0,0,1,.08-.82.64.64,0,0,1,.25-.38.86.86,0,0,1,.47-.11h3.35a.75.75,0,0,1,.71.34l5.27,8.72h.05v-6.46h-1.17a.89.89,0,0,1-.47-.1.65.65,0,0,1-.25-.38,3.32,3.32,0,0,1-.08-.81,3.35,3.35,0,0,1,.08-.82.69.69,0,0,1,.25-.38.88.88,0,0,1,.47-.11h4.76A.88.88,0,0,1,366.31,152.12Z"></path><path class="bf5ed9d2-d4da-4275-8eb9-178373799b61" d="M385.05,152.12a.69.69,0,0,1,.25.38,3.35,3.35,0,0,1,.08.82,3.32,3.32,0,0,1-.08.81.65.65,0,0,1-.25.38.89.89,0,0,1-.47.1H384l-4.34,6.64v3.23h2.49a.89.89,0,0,1,.47.1.69.69,0,0,1,.24.39,2.82,2.82,0,0,1,.09.81,2.85,2.85,0,0,1-.09.82.63.63,0,0,1-.24.38.89.89,0,0,1-.47.1H374a.86.86,0,0,1-.47-.1.64.64,0,0,1-.25-.38,2.92,2.92,0,0,1-.08-.82,2.88,2.88,0,0,1,.08-.81.7.7,0,0,1,.25-.39.86.86,0,0,1,.47-.1h2.48v-3.24l-4.31-6.63h-.59a.89.89,0,0,1-.47-.1.6.6,0,0,1-.24-.38,2.82,2.82,0,0,1-.09-.81,2.85,2.85,0,0,1,.09-.82.63.63,0,0,1,.24-.38.88.88,0,0,1,.47-.11h5a.88.88,0,0,1,.47.11.63.63,0,0,1,.24.38,2.85,2.85,0,0,1,.09.82,2.82,2.82,0,0,1-.09.81.6.6,0,0,1-.24.38.89.89,0,0,1-.47.1h-.85l2.36,3.71,2.38-3.71h-.67a.89.89,0,0,1-.47-.1.65.65,0,0,1-.25-.38,3.32,3.32,0,0,1-.08-.81,3.35,3.35,0,0,1,.08-.82.69.69,0,0,1,.25-.38.88.88,0,0,1,.47-.11h4.75A.88.88,0,0,1,385.05,152.12Z"></path><polygon class="bf5ed9d2-d4da-4275-8eb9-178373799b61" points="138.71 183.17 2 183.17 2 136.28 138.71 136.28 138.71 134.28 0 134.28 0 185.17 138.71 185.17 138.71 183.17"></polygon><polygon class="bf5ed9d2-d4da-4275-8eb9-178373799b61" points="259.63 183.17 396.34 183.17 396.34 136.28 259.63 136.28 259.63 134.28 398.34 134.28 398.34 185.17 259.63 185.17 259.63 183.17"></polygon><path class="b1a3991e-67d4-4881-bc6b-8496c876b2ea" d="M240.85,201.4H157.49V118.05h83.36Zm-75.36-8h67.36V126.05H165.49Z"></path><polygon class="b1a3991e-67d4-4881-bc6b-8496c876b2ea" points="199.57 144.41 175.54 122.9 162.75 122.9 199.57 155.85 236.4 122.9 223.6 122.9 199.57 144.41"></polygon><polygon class="b1a3991e-67d4-4881-bc6b-8496c876b2ea" points="234.7 138.25 199.57 169.69 164.44 138.25 160.71 141.44 160.71 146.36 199.57 181.14 236.4 148.18 236.4 139.7 234.7 138.25"></polygon><polygon class="b1a3991e-67d4-4881-bc6b-8496c876b2ea" points="164.44 163.53 160.71 166.72 160.71 171.64 190.82 198.59 208.32 198.59 236.4 173.46 236.4 164.98 234.7 163.53 199.57 194.97 164.44 163.53"></polygon></g></g></svg>